<mxfile host="app.diagrams.net" modified="2021-07-15T05:39:09.037Z" agent="5.0 (Windows NT 10.0; WOW64) AppleWebKit/537.36 (KHTML, like Gecko) Chrome/83.0.4103.61 Safari/537.36" etag="G_UP092jAlY8Ta0Lo0fC" version="14.8.6" type="github">
  <diagram id="RBuBmUdtF5p_911Tt1P1" name="第 1 页">
    <mxGraphModel dx="834" dy="857" grid="1" gridSize="10" guides="1" tooltips="1" connect="1" arrows="1" fold="1" page="0" pageScale="1" pageWidth="827" pageHeight="1169" background="#DAD2D8" math="0" shadow="0">
      <root>
        <mxCell id="0" />
        <mxCell id="1" parent="0" />
        <mxCell id="MB37Xbq3W8sEPBoul8G4-35" value="7" style="ellipse;whiteSpace=wrap;html=1;aspect=fixed;fillColor=#FAE5C7;strokeColor=#0F8B8D;fontColor=#143642;" vertex="1" parent="1">
          <mxGeometry x="680" y="200" width="40" height="40" as="geometry" />
        </mxCell>
        <mxCell id="MB37Xbq3W8sEPBoul8G4-36" value="" style="group;fontColor=#143642;" vertex="1" connectable="0" parent="1">
          <mxGeometry x="715" y="40" width="50" height="120" as="geometry" />
        </mxCell>
        <mxCell id="MB37Xbq3W8sEPBoul8G4-37" value="10" style="ellipse;whiteSpace=wrap;html=1;aspect=fixed;fillColor=#FAE5C7;strokeColor=#0F8B8D;fontColor=#143642;" vertex="1" parent="MB37Xbq3W8sEPBoul8G4-36">
          <mxGeometry x="5" y="80" width="40" height="40" as="geometry" />
        </mxCell>
        <mxCell id="MB37Xbq3W8sEPBoul8G4-38" value="根元素" style="text;html=1;align=center;verticalAlign=middle;resizable=0;points=[];autosize=1;strokeColor=none;fontColor=#143642;" vertex="1" parent="MB37Xbq3W8sEPBoul8G4-36">
          <mxGeometry width="50" height="20" as="geometry" />
        </mxCell>
        <mxCell id="MB37Xbq3W8sEPBoul8G4-39" value="" style="edgeStyle=orthogonalEdgeStyle;rounded=0;orthogonalLoop=1;jettySize=auto;html=1;labelBackgroundColor=#DAD2D8;strokeColor=#A8201A;fontColor=#143642;" edge="1" parent="MB37Xbq3W8sEPBoul8G4-36" source="MB37Xbq3W8sEPBoul8G4-37" target="MB37Xbq3W8sEPBoul8G4-38">
          <mxGeometry relative="1" as="geometry" />
        </mxCell>
        <mxCell id="MB37Xbq3W8sEPBoul8G4-40" value="1" style="edgeLabel;html=1;align=center;verticalAlign=middle;resizable=0;points=[];fontStyle=1;labelBackgroundColor=#DAD2D8;fontColor=#143642;" vertex="1" connectable="0" parent="MB37Xbq3W8sEPBoul8G4-39">
          <mxGeometry x="0.2487" y="1" relative="1" as="geometry">
            <mxPoint as="offset" />
          </mxGeometry>
        </mxCell>
        <mxCell id="MB37Xbq3W8sEPBoul8G4-41" style="rounded=0;orthogonalLoop=1;jettySize=auto;html=1;exitX=0.5;exitY=1;exitDx=0;exitDy=0;entryX=0.5;entryY=0;entryDx=0;entryDy=0;labelBackgroundColor=#DAD2D8;strokeColor=#A8201A;fontColor=#143642;" edge="1" parent="1" source="MB37Xbq3W8sEPBoul8G4-37" target="MB37Xbq3W8sEPBoul8G4-35">
          <mxGeometry x="680" y="40" as="geometry" />
        </mxCell>
        <mxCell id="MB37Xbq3W8sEPBoul8G4-42" value="16" style="ellipse;whiteSpace=wrap;html=1;aspect=fixed;fillColor=#FAE5C7;strokeColor=#0F8B8D;fontColor=#143642;" vertex="1" parent="1">
          <mxGeometry x="760" y="200" width="40" height="40" as="geometry" />
        </mxCell>
        <mxCell id="MB37Xbq3W8sEPBoul8G4-43" style="edgeStyle=none;rounded=0;orthogonalLoop=1;jettySize=auto;html=1;exitX=0.5;exitY=1;exitDx=0;exitDy=0;entryX=0.5;entryY=0;entryDx=0;entryDy=0;labelBackgroundColor=#DAD2D8;strokeColor=#A8201A;fontColor=#143642;" edge="1" parent="1" source="MB37Xbq3W8sEPBoul8G4-37" target="MB37Xbq3W8sEPBoul8G4-42">
          <mxGeometry relative="1" as="geometry" />
        </mxCell>
        <mxCell id="MB37Xbq3W8sEPBoul8G4-44" value="5" style="ellipse;whiteSpace=wrap;html=1;aspect=fixed;fillColor=#FAE5C7;strokeColor=#0F8B8D;fontColor=#143642;" vertex="1" parent="1">
          <mxGeometry x="640" y="280" width="40" height="40" as="geometry" />
        </mxCell>
        <mxCell id="MB37Xbq3W8sEPBoul8G4-47" value="" style="rounded=1;whiteSpace=wrap;html=1;glass=0;fillColor=#eeeeee;strokeColor=#36393d;shadow=0;sketch=0;" vertex="1" parent="1">
          <mxGeometry x="200" y="20" width="360" height="240" as="geometry" />
        </mxCell>
        <mxCell id="MB37Xbq3W8sEPBoul8G4-13" value="" style="group;fontColor=#143642;" vertex="1" connectable="0" parent="1">
          <mxGeometry x="217" y="40" width="50" height="120" as="geometry" />
        </mxCell>
        <mxCell id="MB37Xbq3W8sEPBoul8G4-1" value="10" style="ellipse;whiteSpace=wrap;html=1;aspect=fixed;fillColor=#f5f5f5;strokeColor=#666666;gradientColor=#b3b3b3;" vertex="1" parent="MB37Xbq3W8sEPBoul8G4-13">
          <mxGeometry x="5" y="80" width="40" height="40" as="geometry" />
        </mxCell>
        <mxCell id="MB37Xbq3W8sEPBoul8G4-4" value="根元素" style="text;html=1;align=center;verticalAlign=middle;resizable=0;points=[];autosize=1;strokeColor=none;fontColor=#143642;" vertex="1" parent="MB37Xbq3W8sEPBoul8G4-13">
          <mxGeometry width="50" height="20" as="geometry" />
        </mxCell>
        <mxCell id="MB37Xbq3W8sEPBoul8G4-6" value="" style="edgeStyle=orthogonalEdgeStyle;rounded=0;orthogonalLoop=1;jettySize=auto;html=1;labelBackgroundColor=#DAD2D8;strokeColor=#A8201A;fontColor=#143642;" edge="1" parent="MB37Xbq3W8sEPBoul8G4-13" source="MB37Xbq3W8sEPBoul8G4-1" target="MB37Xbq3W8sEPBoul8G4-4">
          <mxGeometry relative="1" as="geometry" />
        </mxCell>
        <mxCell id="MB37Xbq3W8sEPBoul8G4-54" value="1" style="edgeLabel;html=1;align=center;verticalAlign=middle;resizable=0;points=[];fontColor=#143642;" vertex="1" connectable="0" parent="MB37Xbq3W8sEPBoul8G4-6">
          <mxGeometry x="0.3023" relative="1" as="geometry">
            <mxPoint as="offset" />
          </mxGeometry>
        </mxCell>
        <mxCell id="MB37Xbq3W8sEPBoul8G4-20" value="" style="group;fontColor=#143642;" vertex="1" connectable="0" parent="1">
          <mxGeometry x="303" y="40" width="85" height="200" as="geometry" />
        </mxCell>
        <mxCell id="MB37Xbq3W8sEPBoul8G4-8" value="7" style="ellipse;whiteSpace=wrap;html=1;aspect=fixed;fillColor=#f8cecc;strokeColor=#b85450;gradientColor=#ea6b66;" vertex="1" parent="MB37Xbq3W8sEPBoul8G4-20">
          <mxGeometry y="160" width="40" height="40" as="geometry" />
        </mxCell>
        <mxCell id="MB37Xbq3W8sEPBoul8G4-14" value="" style="group;fontColor=#143642;" vertex="1" connectable="0" parent="MB37Xbq3W8sEPBoul8G4-20">
          <mxGeometry x="35" width="50" height="120" as="geometry" />
        </mxCell>
        <mxCell id="MB37Xbq3W8sEPBoul8G4-15" value="10" style="ellipse;whiteSpace=wrap;html=1;aspect=fixed;fillColor=#f5f5f5;strokeColor=#666666;gradientColor=#b3b3b3;" vertex="1" parent="MB37Xbq3W8sEPBoul8G4-14">
          <mxGeometry x="5" y="80" width="40" height="40" as="geometry" />
        </mxCell>
        <mxCell id="MB37Xbq3W8sEPBoul8G4-16" value="根元素" style="text;html=1;align=center;verticalAlign=middle;resizable=0;points=[];autosize=1;strokeColor=none;fontColor=#143642;" vertex="1" parent="MB37Xbq3W8sEPBoul8G4-14">
          <mxGeometry width="50" height="20" as="geometry" />
        </mxCell>
        <mxCell id="MB37Xbq3W8sEPBoul8G4-17" value="" style="edgeStyle=orthogonalEdgeStyle;rounded=0;orthogonalLoop=1;jettySize=auto;html=1;labelBackgroundColor=#DAD2D8;strokeColor=#A8201A;fontColor=#143642;" edge="1" parent="MB37Xbq3W8sEPBoul8G4-14" source="MB37Xbq3W8sEPBoul8G4-15" target="MB37Xbq3W8sEPBoul8G4-16">
          <mxGeometry relative="1" as="geometry" />
        </mxCell>
        <mxCell id="MB37Xbq3W8sEPBoul8G4-55" value="1" style="edgeLabel;html=1;align=center;verticalAlign=middle;resizable=0;points=[];fontColor=#143642;" vertex="1" connectable="0" parent="MB37Xbq3W8sEPBoul8G4-17">
          <mxGeometry x="0.2563" relative="1" as="geometry">
            <mxPoint as="offset" />
          </mxGeometry>
        </mxCell>
        <mxCell id="MB37Xbq3W8sEPBoul8G4-19" style="rounded=0;orthogonalLoop=1;jettySize=auto;html=1;exitX=0.5;exitY=1;exitDx=0;exitDy=0;entryX=0.5;entryY=0;entryDx=0;entryDy=0;labelBackgroundColor=#DAD2D8;strokeColor=#A8201A;fontColor=#143642;" edge="1" parent="MB37Xbq3W8sEPBoul8G4-20" source="MB37Xbq3W8sEPBoul8G4-15" target="MB37Xbq3W8sEPBoul8G4-8">
          <mxGeometry relative="1" as="geometry" />
        </mxCell>
        <mxCell id="MB37Xbq3W8sEPBoul8G4-51" value="2" style="edgeLabel;html=1;align=center;verticalAlign=middle;resizable=0;points=[];fontColor=#143642;" vertex="1" connectable="0" parent="MB37Xbq3W8sEPBoul8G4-19">
          <mxGeometry x="-0.2222" y="2" relative="1" as="geometry">
            <mxPoint as="offset" />
          </mxGeometry>
        </mxCell>
        <mxCell id="MB37Xbq3W8sEPBoul8G4-22" value="7" style="ellipse;whiteSpace=wrap;html=1;aspect=fixed;fillColor=#f8cecc;strokeColor=#b85450;gradientColor=#ea6b66;" vertex="1" parent="1">
          <mxGeometry x="423" y="200" width="40" height="40" as="geometry" />
        </mxCell>
        <mxCell id="MB37Xbq3W8sEPBoul8G4-23" value="" style="group;fontColor=#143642;" vertex="1" connectable="0" parent="1">
          <mxGeometry x="458" y="40" width="50" height="120" as="geometry" />
        </mxCell>
        <mxCell id="MB37Xbq3W8sEPBoul8G4-24" value="10" style="ellipse;whiteSpace=wrap;html=1;aspect=fixed;fillColor=#f5f5f5;strokeColor=#666666;gradientColor=#b3b3b3;" vertex="1" parent="MB37Xbq3W8sEPBoul8G4-23">
          <mxGeometry x="5" y="80" width="40" height="40" as="geometry" />
        </mxCell>
        <mxCell id="MB37Xbq3W8sEPBoul8G4-25" value="根元素" style="text;html=1;align=center;verticalAlign=middle;resizable=0;points=[];autosize=1;strokeColor=none;fontColor=#143642;" vertex="1" parent="MB37Xbq3W8sEPBoul8G4-23">
          <mxGeometry width="50" height="20" as="geometry" />
        </mxCell>
        <mxCell id="MB37Xbq3W8sEPBoul8G4-26" value="" style="edgeStyle=orthogonalEdgeStyle;rounded=0;orthogonalLoop=1;jettySize=auto;html=1;labelBackgroundColor=#DAD2D8;strokeColor=#A8201A;fontColor=#143642;" edge="1" parent="MB37Xbq3W8sEPBoul8G4-23" source="MB37Xbq3W8sEPBoul8G4-24" target="MB37Xbq3W8sEPBoul8G4-25">
          <mxGeometry relative="1" as="geometry" />
        </mxCell>
        <mxCell id="MB37Xbq3W8sEPBoul8G4-56" value="1" style="edgeLabel;html=1;align=center;verticalAlign=middle;resizable=0;points=[];fontColor=#143642;" vertex="1" connectable="0" parent="MB37Xbq3W8sEPBoul8G4-26">
          <mxGeometry x="0.2333" y="1" relative="1" as="geometry">
            <mxPoint as="offset" />
          </mxGeometry>
        </mxCell>
        <mxCell id="MB37Xbq3W8sEPBoul8G4-28" style="rounded=0;orthogonalLoop=1;jettySize=auto;html=1;exitX=0.5;exitY=1;exitDx=0;exitDy=0;entryX=0.5;entryY=0;entryDx=0;entryDy=0;labelBackgroundColor=#DAD2D8;strokeColor=#A8201A;fontColor=#143642;" edge="1" parent="1" source="MB37Xbq3W8sEPBoul8G4-24" target="MB37Xbq3W8sEPBoul8G4-22">
          <mxGeometry x="423" y="40" as="geometry" />
        </mxCell>
        <mxCell id="MB37Xbq3W8sEPBoul8G4-52" value="2" style="edgeLabel;html=1;align=center;verticalAlign=middle;resizable=0;points=[];fontColor=#143642;" vertex="1" connectable="0" parent="MB37Xbq3W8sEPBoul8G4-28">
          <mxGeometry relative="1" as="geometry">
            <mxPoint x="6" y="-5" as="offset" />
          </mxGeometry>
        </mxCell>
        <mxCell id="MB37Xbq3W8sEPBoul8G4-29" value="16" style="ellipse;whiteSpace=wrap;html=1;aspect=fixed;fillColor=#f8cecc;strokeColor=#b85450;gradientColor=#ea6b66;" vertex="1" parent="1">
          <mxGeometry x="503" y="200" width="40" height="40" as="geometry" />
        </mxCell>
        <mxCell id="MB37Xbq3W8sEPBoul8G4-30" style="edgeStyle=none;rounded=0;orthogonalLoop=1;jettySize=auto;html=1;exitX=0.5;exitY=1;exitDx=0;exitDy=0;entryX=0.5;entryY=0;entryDx=0;entryDy=0;labelBackgroundColor=#DAD2D8;strokeColor=#A8201A;fontColor=#143642;" edge="1" parent="1" source="MB37Xbq3W8sEPBoul8G4-24" target="MB37Xbq3W8sEPBoul8G4-29">
          <mxGeometry x="217" y="40" as="geometry" />
        </mxCell>
        <mxCell id="MB37Xbq3W8sEPBoul8G4-53" value="3" style="edgeLabel;html=1;align=center;verticalAlign=middle;resizable=0;points=[];fontColor=#143642;" vertex="1" connectable="0" parent="MB37Xbq3W8sEPBoul8G4-30">
          <mxGeometry relative="1" as="geometry">
            <mxPoint x="-7" y="-7" as="offset" />
          </mxGeometry>
        </mxCell>
        <mxCell id="MB37Xbq3W8sEPBoul8G4-57" value="这个过程都是属于平衡的状态" style="text;html=1;align=center;verticalAlign=middle;resizable=0;points=[];autosize=1;strokeColor=none;fontColor=#143642;fontStyle=1" vertex="1" parent="1">
          <mxGeometry x="295" y="-50" width="170" height="20" as="geometry" />
        </mxCell>
      </root>
    </mxGraphModel>
  </diagram>
</mxfile>
